<svg width="1000" height="1000" viewBox="0 0 1000 1000" xmlns="http://www.w3.org/2000/svg"><defs/><path fill="#80bb3b" fill-rule="evenodd" transform="matrix(0.5071679884936394 0 0 0.5071679884936394 16.806197941082115 34.546398440856485)" d="M 635.72138090766 934.98034840175 C 635.62138090766 934.98034840175 635.52138090766 935.08034840175 635.42138090766 935.08034840175 C 632.52138090766 936.38034840175 630.42138090766 937.48034840175 629.12138090766 940.48034840175 C 627.72138090766 943.68034840175 627.22138090766 944.58034840175 623.82138090766 945.98034840175 C 617.32138090766 948.78034840175 598.32138090766 956.98034840175 594.12138090766 957.58034840175 C 585.42138090766 958.98034840175 578.62138090766 961.38034840175 570.82138090766 962.88034840175 C 571.82138090766 963.48034840175 572.92138090766 964.08034840175 574.02138090766 964.68034840175 C 574.72138090766 965.08034840175 575.42138090766 965.48034840175 576.12138090766 965.88034840175 L 577.42138090766 966.68034840175 C 583.02138090766 969.98034840175 588.42138090766 973.08034840175 594.32138090766 974.98034840175 C 596.62138090766 975.78034840175 599.12138090766 976.18034840175 602.02138090766 976.38034840175 C 604.82138090766 974.88034840175 607.62138090766 973.08034840175 609.32138090766 972.38034840175 C 612.92138090766 970.68034840175 616.62138090766 969.08034840175 620.22138090766 967.38034840175 C 625.62138090766 964.88034840175 629.82138090766 959.98034840175 635.92138090766 959.38034840175 C 635.62138090766 958.88034840175 635.52138090766 958.08034840175 635.32138090766 957.68034840175 C 640.22138090766 957.48034840175 642.52138090766 958.48034840175 647.52138090766 958.98034840175 C 651.02138090766 959.28034840175 666.72138090766 968.38034840175 660.62138090766 956.68034840175 C 659.22138090766 954.08034840175 656.72138090766 951.98034840175 654.52138090766 950.08034840175 C 650.12138090766 946.58034840175 647.42138090766 942.88034840175 643.52138090766 938.68034840175 C 640.52138090766 935.58034840175 640.52138090766 932.98034840175 635.72138090766 934.98034840175 Z"/><path fill="#80bb3b" fill-rule="evenodd" transform="matrix(0.5071679884936394 0 0 0.5071679884936394 16.806197941082115 34.546398440856485)" d="M 691.32138090766 994.88034840175 C 687.62138090766 987.78034840175 681.32138090766 982.18034840175 678.02138090766 974.98034840175 C 675.92138090766 970.48034840175 673.52138090766 970.38034840175 668.62138090766 971.28034840175 C 665.72138090766 971.88034840175 665.22138090766 972.18034840175 663.42138090766 974.08034840175 C 662.02138090766 975.68034840175 662.52138090766 977.28034840175 659.72138090766 978.18034840175 C 650.12138090766 981.28034840175 638.12138090766 978.58034840175 628.42138090766 977.58034840175 C 617.12138090766 976.48034840175 604.82138090766 980.38034840175 593.92138090766 976.78034840175 C 587.32138090766 974.58034840175 581.42138090766 971.08034840175 575.32138090766 967.58034840175 C 569.82138090766 964.38034840175 564.22138090766 961.58034840175 560.02138090766 956.68034840175 C 555.82138090766 951.78034840175 550.72138090766 947.28034840175 544.82138090766 944.48034840175 C 536.02138090766 940.38034840175 526.12138090766 940.18034840175 516.82138090766 937.98034840175 C 509.72138090766 936.28034840175 502.32138090766 933.48034840175 495.82138090766 929.88034840175 C 499.12138090766 933.68034840175 502.42138090766 937.68034840175 505.22138090766 941.88034840175 C 514.22138090766 955.28034840175 516.32138090766 966.68034840175 511.32138090766 975.78034840175 C 508.62138090766 980.68034840175 503.82138090766 986.28034840175 498.72138090766 991.68034840175 C 500.82138090766 991.78034840175 502.92138090766 991.98034840175 505.02138090766 992.28034840175 C 514.72138090766 993.68034840175 523.42138090766 996.58034840175 532.82138090766 998.38034840175 C 542.72138090766 1000.18034840175 552.92138090766 1000.68034840175 562.92138090766 1002.48034840175 C 574.52138090766 1004.58034840175 586.72138090766 1008.98034840175 598.42138090766 1007.48034840175 C 605.32138090766 1006.58034840175 610.72138090766 1005.28034840175 617.22138090766 1002.98034840175 C 622.32138090766 1001.08034840175 629.12138090766 1000.38034840175 634.62138090766 999.48034840175 C 639.62138090766 998.68034840175 658.32138090766 997.18034840175 664.12138090766 997.28034840175 L 663.92138090766 994.58034840175 C 666.92138090766 993.28034840175 668.12138090766 994.08034840175 669.82138090766 994.68034840175 C 674.82138090766 996.38034840175 678.92138090766 999.68034840175 683.12138090766 1002.68034840175 C 684.92138090766 1003.98034840175 691.22138090766 1009.68034840175 693.52138090766 1007.28034840175 C 695.42138090766 1005.18034840175 692.32138090766 996.78034840175 691.32138090766 994.88034840175 Z"/><path fill="#80bb3b" fill-rule="evenodd" transform="matrix(0.5071679884936394 0 0 0.5071679884936394 16.806197941082115 34.546398440856485)" d="M 603.72138090766 843.48034840175 C 602.32138090766 832.28034840175 602.22138090766 824.08034840175 610.42138090766 814.38034840175 C 617.12138090766 806.88034840175 627.82138090766 797.68034840175 639.02138090766 795.88034840175 C 614.62138090766 789.08034840175 584.82138090766 801.88034840175 566.82138090766 818.78034840175 C 551.02138090766 833.18034840175 516.52138090766 872.58034840175 487.52138090766 887.08034840175 C 473.22138090766 894.28034840175 450.12138090766 897.88034840175 446.12138090766 901.08034840175 C 443.52138090766 902.18034840175 440.22138090766 903.38034840175 438.62138090766 900.98034840175 C 438.22138090766 898.28034840175 438.12138090766 895.58034840175 438.22138090766 892.98034840175 C 438.52138090766 892.98034840175 438.82138090766 892.98034840175 439.02138090766 892.88034840175 L 439.02138090766 892.68034840175 C 439.02138090766 886.38034840175 439.02138090766 881.28034840175 436.62138090766 875.68034840175 C 433.82138090766 869.18034840175 427.32138090766 866.58034840175 420.92138090766 865.18034840175 C 414.52138090766 863.78034840175 406.22138090766 863.48034840175 400.42138090766 866.68034840175 C 395.02138090766 869.58034840175 393.92138090766 873.98034840175 389.02138090766 877.38034840175 C 386.02138090766 879.38034840175 374.32138090766 880.58034840175 374.42138090766 883.28034840175 C 374.52138090766 886.88034840175 378.92138090766 888.08034840175 381.32138090766 888.38034840175 C 384.52138090766 888.78034840175 387.72138090766 888.68034840175 390.92138090766 888.48034840175 C 390.82138090766 888.88034840175 390.62138090766 889.28034840175 390.52138090766 889.78034840175 C 389.92138090766 891.88034840175 388.22138090766 896.08034840175 389.12138090766 898.18034840175 C 389.32138090766 898.68034840175 392.32138090766 901.08034840175 392.42138090766 900.98034840175 C 391.52138090766 902.18034840175 392.52138090766 903.38034840175 393.02138090766 904.08034840175 C 393.22138090766 904.28034840175 392.42138090766 907.08034840175 391.82138090766 908.38034840175 C 391.32138090766 909.58034840175 390.62138090766 911.18034840175 391.22138090766 912.38034840175 C 391.62138090766 913.08034840175 392.82138090766 913.68034840175 393.62138090766 913.78034840175 C 393.82138090766 913.78034840175 394.02138090766 913.88034840175 394.32138090766 913.88034840175 C 395.52138090766 913.98034840175 397.02138090766 914.18034840175 397.62138090766 915.28034840175 C 398.02138090766 915.88034840175 398.12138090766 916.48034840175 398.02138090766 917.18034840175 C 398.02138090766 917.38034840175 397.92138090766 917.68034840175 397.92138090766 917.88034840175 C 397.72138090766 918.58034840175 397.62138090766 918.98034840175 398.12138090766 919.38034840175 C 398.32138090766 919.58034840175 398.42138090766 919.88034840175 398.22138090766 920.18034840175 C 398.02138090766 920.58034840175 398.02138090766 920.78034840175 398.02138090766 920.78034840175 C 398.02138090766 920.88034840175 398.22138090766 920.98034840175 398.42138090766 921.08034840175 C 398.62138090766 921.18034840175 398.92138090766 921.28034840175 399.12138090766 921.58034840175 C 399.82138090766 922.28034840175 399.82138090766 923.68034840175 399.82138090766 923.98034840175 L 399.82138090766 924.28034840175 C 399.82138090766 926.68034840175 399.82138090766 928.88034840175 402.52138090766 929.58034840175 C 403.92138090766 929.88034840175 405.42138090766 930.08034840175 406.92138090766 930.08034840175 C 410.62138090766 930.08034840175 414.32138090766 929.08034840175 417.92138090766 926.98034840175 C 418.02138090766 926.88034840175 418.12138090766 926.88034840175 418.22138090766 926.88034840175 C 418.52138090766 926.88034840175 418.72138090766 927.08034840175 418.82138090766 927.38034840175 C 418.92138090766 927.68034840175 418.82138090766 927.98034840175 418.52138090766 928.08034840175 C 414.72138090766 930.28034840175 410.92138090766 931.38034840175 407.32138090766 931.38034840175 C 407.12138090766 931.38034840175 406.92138090766 931.38034840175 406.62138090766 931.38034840175 L 406.22138090766 931.38034840175 C 403.82138090766 931.28034840175 400.22138090766 931.18034840175 399.02138090766 928.78034840175 C 398.42138090766 927.68034840175 398.42138090766 926.68034840175 398.42138090766 925.58034840175 C 398.42138090766 925.08034840175 398.42138090766 924.68034840175 398.42138090766 924.18034840175 C 398.32138090766 922.98034840175 397.92138090766 922.68034840175 397.02138090766 921.98034840175 C 396.72138090766 921.78034840175 396.62138090766 921.48034840175 396.52138090766 921.28034840175 C 396.42138090766 921.08034840175 396.52138090766 920.88034840175 396.62138090766 920.58034840175 C 396.62138090766 920.48034840175 396.72138090766 920.28034840175 396.72138090766 920.18034840175 C 396.42138090766 919.88034840175 396.32138090766 919.48034840175 396.32138090766 919.18034840175 C 396.32138090766 918.78034840175 396.42138090766 918.38034840175 396.52138090766 917.98034840175 C 396.52138090766 917.88034840175 396.62138090766 917.78034840175 396.62138090766 917.68034840175 C 396.72138090766 917.08034840175 396.72138090766 916.68034840175 396.42138090766 916.28034840175 C 396.02138090766 915.78034840175 395.32138090766 915.48034840175 394.22138090766 915.38034840175 C 393.32138090766 915.28034840175 392.52138090766 914.98034840175 391.82138090766 914.58034840175 C 384.32138090766 921.38034840175 372.82138090766 922.48034840175 365.52138090766 922.78034840175 C 355.92138090766 923.18034840175 344.22138090766 921.08034840175 339.52138090766 920.58034840175 C 333.92138090766 920.08034840175 327.72138090766 920.28034840175 321.92138090766 920.98034840175 C 318.12138090766 921.38034840175 314.32138090766 921.48034840175 310.62138090766 922.08034840175 C 306.22138090766 922.78034840175 301.92138090766 921.78034840175 297.52138090766 921.48034840175 C 292.02138090766 921.18034840175 288.92138090766 917.48034840175 285.32138090766 913.98034840175 C 282.52138090766 911.28034840175 279.72138090766 908.58034840175 275.72138090766 908.08034840175 C 271.02138090766 907.38034840175 269.32138090766 910.38034840175 266.72138090766 913.88034840175 C 265.22138090766 915.98034840175 262.02138090766 920.88034840175 262.72138090766 923.48034840175 C 263.32138090766 925.68034840175 269.02138090766 928.78034840175 271.42138090766 926.28034840175 C 271.72138090766 925.98034840175 277.62138090766 929.68034840175 278.32138090766 929.98034840175 C 281.32138090766 931.08034840175 284.52138090766 930.48034840175 287.62138090766 930.68034840175 C 290.82138090766 930.88034840175 293.32138090766 932.28034840175 296.32138090766 933.18034840175 C 298.52138090766 933.88034840175 300.82138090766 934.58034840175 303.02138090766 935.18034840175 C 308.12138090766 936.68034840175 312.82138090766 938.98034840175 317.72138090766 940.58034840175 C 333.42138090766 945.68034840175 350.12138090766 943.28034840175 366.32138090766 943.28034840175 C 371.42138090766 943.28034840175 402.42138090766 939.28034840175 411.42138090766 947.08034840175 C 411.72138090766 947.28034840175 411.92138090766 947.58034840175 412.22138090766 947.78034840175 L 444.42138090766 947.78034840175 C 446.92138090766 947.78034840175 449.02138090766 949.78034840175 449.02138090766 952.38034840175 L 449.02138090766 981.18034840175 C 450.72138090766 982.18034840175 452.62138090766 983.08034840175 454.62138090766 983.98034840175 C 458.42138090766 985.68034840175 462.12138090766 987.48034840175 466.12138090766 988.58034840175 C 467.52138090766 988.98034840175 468.92138090766 989.28034840175 470.42138090766 989.58034840175 C 470.42138090766 989.58034840175 470.42138090766 989.58034840175 470.42138090766 989.48034840175 C 475.52138090766 981.58034840175 481.22138090766 974.08034840175 487.92138090766 966.48034840175 C 482.02138090766 961.28034840175 477.82138090766 956.38034840175 474.12138090766 952.08034840175 C 469.42138090766 946.68034840175 462.92138090766 939.38034840175 456.12138090766 933.48034840175 C 471.82138090766 942.58034840175 475.02138090766 953.08034840175 490.62138090766 966.28034840175 C 483.72138090766 973.88034840175 477.52138090766 981.88034840175 472.02138090766 990.48034840175 C 468.72138090766 995.68034840175 466.32138090766 1000.88034840175 462.72138090766 1005.98034840175 C 460.22138090766 1009.48034840175 456.92138090766 1014.98034840175 452.52138090766 1016.18034840175 C 451.32138090766 1016.48034840175 450.22138090766 1016.68034840175 449.12138090766 1016.78034840175 L 449.12138090766 1019.48034840175 C 449.12138090766 1021.18034840175 448.22138090766 1023.18034840175 447.02138090766 1024.38034840175 L 434.12138090766 1036.38034840175 C 434.72138090766 1036.58034840175 435.42138090766 1036.68034840175 436.22138090766 1036.78034840175 C 446.12138090766 1038.28034840175 450.12138090766 1030.68034840175 456.62138090766 1025.28034840175 C 459.82138090766 1022.58034840175 464.02138090766 1020.18034840175 467.02138090766 1017.68034840175 C 472.02138090766 1013.58034840175 474.52138090766 1010.58034840175 477.22138090766 1008.58034840175 C 479.92138090766 1006.58034840175 502.52138090766 987.38034840175 509.52138090766 974.68034840175 C 518.62138090766 958.08034840175 500.42138090766 936.58034840175 486.22138090766 922.28034840175 C 503.02138090766 926.98034840175 519.12138090766 931.78034840175 538.42138090766 929.68034840175 C 552.42138090766 927.98034840175 565.62138090766 924.08034840175 578.82138090766 920.18034840175 C 589.22138090766 917.08034840175 606.02138090766 914.58034840175 612.52138090766 906.58034840175 C 619.32138090766 898.18034840175 615.72138090766 887.68034840175 613.22138090766 878.88034840175 C 609.42138090766 867.38034840175 605.12138090766 855.58034840175 603.72138090766 843.48034840175 Z"/><path fill="#bddc3f" transform="matrix(0.5071679884936394 0 0 0.5071679884936394 16.806197941082115 34.546398440856485)" d="M 444.62138090766 950.48034840175 L 358.72138090766 950.48034840175 C 357.82138090766 950.48034840175 356.62138090766 950.98034840175 355.92138090766 951.58034840175 L 335.42138090766 970.78034840175 L 377.72138090766 969.58034840175 L 390.12138090766 952.28034840175 L 403.62138090766 952.28034840175 L 391.62138090766 969.18034840175 L 425.32138090766 968.28034840175 L 445.12138090766 951.58034840175 C 445.12138090766 951.68034840175 427.22138090766 970.38034840175 427.22138090766 970.38034840175 L 424.92138090766 1036.68034840175 C 424.82138090766 1036.68034840175 424.82138090766 1036.68034840175 424.72138090766 1036.78034840175 L 424.72138090766 970.88034840175 L 390.92138090766 970.88034840175 L 390.92138090766 997.18034840175 L 384.12138090766 992.18034840175 L 377.32138090766 997.18034840175 L 377.32138090766 970.78034840175 L 335.52138090766 970.78034840175 L 335.52138090766 1039.88034840175 C 335.52138090766 1040.78034840175 336.22138090766 1041.48034840175 337.12138090766 1041.48034840175 L 423.02138090766 1041.48034840175 C 423.92138090766 1041.48034840175 425.12138090766 1040.98034840175 425.82138090766 1040.38034840175 L 445.12138090766 1022.28034840175 C 445.72138090766 1021.68034840175 446.32138090766 1020.48034840175 446.32138090766 1019.58034840175 L 446.32138090766 952.18034840175 C 446.32138090766 951.28034840175 445.52138090766 950.48034840175 444.62138090766 950.48034840175 Z"/><path id="text" fill="#39844f" transform="matrix(0.9028529551598314 0 0 0.9028529551598314 274.6430134482536 58.33575108879926)" d="M 179.15344091545 522.78735480354 L 166.19344091545 504.06735480354 L 165.42544091545 504.06735480354 L 151.88944091545 504.06735480354 L 151.88944091545 522.78735480354 L 136.33744091545 522.78735480354 L 136.33744091545 455.58735480354 L 165.42544091545 455.58735480354 C 171.37744091545 455.58735480354 176.54544091545 456.57935480354 180.92944091545 458.56335480354 C 185.31344091545 460.54735480354 188.68944091545 463.36335480354 191.05744091545 467.01135480354 C 193.42544091545 470.65935480354 194.60944091545 474.97935480354 194.60944091545 479.97135480354 C 194.60944091545 484.96335480354 193.40944091545 489.26735480354 191.00944091545 492.88335480354 C 188.60944091545 496.49935480354 185.20144091545 499.26735480354 180.78544091545 501.18735480354 L 195.85744091545 522.78735480354 L 179.15344091545 522.78735480354 Z M 175.21744091545 471.28335480354 C 172.78544091545 469.26735480354 169.23344091545 468.25935480354 164.56144091545 468.25935480354 L 151.88944091545 468.25935480354 L 151.88944091545 491.68335480354 L 164.56144091545 491.68335480354 C 169.23344091545 491.68335480354 172.78544091545 490.65935480354 175.21744091545 488.61135480354 C 177.64944091545 486.56335480354 178.86544091545 483.68335480354 178.86544091545 479.97135480354 C 178.86544091545 476.19535480354 177.64944091545 473.29935480354 175.21744091545 471.28335480354 Z M 211.69744091545 455.58735480354 L 242.22544091545 455.58735480354 C 249.52144091545 455.58735480354 255.96944091545 456.97935480354 261.56944091545 459.76335480354 C 267.16944091545 462.54735480354 271.52144091545 466.46735480354 274.62544091545 471.52335480354 C 277.72944091545 476.57935480354 279.28144091545 482.46735480354 279.28144091545 489.18735480354 C 279.28144091545 495.90735480354 277.72944091545 501.79535480354 274.62544091545 506.85135480354 C 271.52144091545 511.90735480354 267.16944091545 515.82735480354 261.56944091545 518.61135480354 C 255.96944091545 521.39535480354 249.52144091545 522.78735480354 242.22544091545 522.78735480354 L 211.69744091545 522.78735480354 L 211.69744091545 455.58735480354 Z M 241.45744091545 510.01935480354 C 248.17744091545 510.01935480354 253.53744091545 508.14735480354 257.53744091545 504.40335480354 C 261.53744091545 500.65935480354 263.53744091545 495.58735480354 263.53744091545 489.18735480354 C 263.53744091545 482.78735480354 261.53744091545 477.71535480354 257.53744091545 473.97135480354 C 253.53744091545 470.22735480354 248.17744091545 468.35535480354 241.45744091545 468.35535480354 L 227.24944091545 468.35535480354 L 227.24944091545 510.01935480354 L 241.45744091545 510.01935480354 Z M 302.46544091545 521.77935480354 C 297.50544091545 520.33935480354 293.52144091545 518.46735480354 290.51344091545 516.16335480354 L 295.79344091545 504.45135480354 C 298.67344091545 506.56335480354 302.09744091545 508.25935480354 306.06544091545 509.53935480354 C 310.03344091545 510.81935480354 314.00144091545 511.45935480354 317.96944091545 511.45935480354 C 322.38544091545 511.45935480354 325.64944091545 510.80335480354 327.76144091545 509.49135480354 C 329.87344091545 508.17935480354 330.92944091545 506.43535480354 330.92944091545 504.25935480354 C 330.92944091545 502.65935480354 330.30544091545 501.33135480354 329.05744091545 500.27535480354 C 327.80944091545 499.21935480354 326.20944091545 498.37135480354 324.25744091545 497.73135480354 C 322.30544091545 497.09135480354 319.66544091545 496.38735480354 316.33744091545 495.61935480354 C 311.21744091545 494.40335480354 307.02544091545 493.18735480354 303.76144091545 491.97135480354 C 300.49744091545 490.75535480354 297.69744091545 488.80335480354 295.36144091545 486.11535480354 C 293.02544091545 483.42735480354 291.85744091545 479.84335480354 291.85744091545 475.36335480354 C 291.85744091545 471.45935480354 292.91344091545 467.92335480354 295.02544091545 464.75535480354 C 297.13744091545 461.58735480354 300.32144091545 459.07535480354 304.57744091545 457.21935480354 C 308.83344091545 455.36335480354 314.03344091545 454.43535480354 320.17744091545 454.43535480354 C 324.46544091545 454.43535480354 328.65744091545 454.94735480354 332.75344091545 455.97135480354 C 336.84944091545 456.99535480354 340.43344091545 458.46735480354 343.50544091545 460.38735480354 L 338.70544091545 472.19535480354 C 332.49744091545 468.67535480354 326.28944091545 466.91535480354 320.08144091545 466.91535480354 C 315.72944091545 466.91535480354 312.51344091545 467.61935480354 310.43344091545 469.02735480354 C 308.35344091545 470.43535480354 307.31344091545 472.29135480354 307.31344091545 474.59535480354 C 307.31344091545 476.89935480354 308.51344091545 478.61135480354 310.91344091545 479.73135480354 C 313.31344091545 480.85135480354 316.97744091545 481.95535480354 321.90544091545 483.04335480354 C 327.02544091545 484.25935480354 331.21744091545 485.47535480354 334.48144091545 486.69135480354 C 337.74544091545 487.90735480354 340.54544091545 489.82735480354 342.88144091545 492.45135480354 C 345.21744091545 495.07535480354 346.38544091545 498.62735480354 346.38544091545 503.10735480354 C 346.38544091545 506.94735480354 345.31344091545 510.45135480354 343.16944091545 513.61935480354 C 341.02544091545 516.78735480354 337.80944091545 519.29935480354 333.52144091545 521.15535480354 C 329.23344091545 523.01135480354 324.01744091545 523.93935480354 317.87344091545 523.93935480354 C 312.56144091545 523.93935480354 307.42544091545 523.21935480354 302.46544091545 521.77935480354 Z M 374.80144091545 468.25935480354 L 353.29744091545 468.25935480354 L 353.29744091545 455.58735480354 L 411.85744091545 455.58735480354 L 411.85744091545 468.25935480354 L 390.35344091545 468.25935480354 L 390.35344091545 522.78735480354 L 374.80144091545 522.78735480354 L 374.80144091545 468.25935480354 Z M 437.72944091545 519.42735480354 C 432.12944091545 516.41935480354 427.74544091545 512.27535480354 424.57744091545 506.99535480354 C 421.40944091545 501.71535480354 419.82544091545 495.77935480354 419.82544091545 489.18735480354 C 419.82544091545 482.59535480354 421.40944091545 476.65935480354 424.57744091545 471.37935480354 C 427.74544091545 466.09935480354 432.12944091545 461.95535480354 437.72944091545 458.94735480354 C 443.32944091545 455.93935480354 449.61744091545 454.43535480354 456.59344091545 454.43535480354 C 463.56944091545 454.43535480354 469.84144091545 455.93935480354 475.40944091545 458.94735480354 C 480.97744091545 461.95535480354 485.36144091545 466.09935480354 488.56144091545 471.37935480354 C 491.76144091545 476.65935480354 493.36144091545 482.59535480354 493.36144091545 489.18735480354 C 493.36144091545 495.77935480354 491.76144091545 501.71535480354 488.56144091545 506.99535480354 C 485.36144091545 512.27535480354 480.97744091545 516.41935480354 475.40944091545 519.42735480354 C 469.84144091545 522.43535480354 463.56944091545 523.93935480354 456.59344091545 523.93935480354 C 449.61744091545 523.93935480354 443.32944091545 522.43535480354 437.72944091545 519.42735480354 Z M 467.34544091545 507.95535480354 C 470.54544091545 506.13135480354 473.05744091545 503.58735480354 474.88144091545 500.32335480354 C 476.70544091545 497.05935480354 477.61744091545 493.34735480354 477.61744091545 489.18735480354 C 477.61744091545 485.02735480354 476.70544091545 481.31535480354 474.88144091545 478.05135480354 C 473.05744091545 474.78735480354 470.54544091545 472.24335480354 467.34544091545 470.41935480354 C 464.14544091545 468.59535480354 460.56144091545 467.68335480354 456.59344091545 467.68335480354 C 452.62544091545 467.68335480354 449.04144091545 468.59535480354 445.84144091545 470.41935480354 C 442.64144091545 472.24335480354 440.12944091545 474.78735480354 438.30544091545 478.05135480354 C 436.48144091545 481.31535480354 435.56944091545 485.02735480354 435.56944091545 489.18735480354 C 435.56944091545 493.34735480354 436.48144091545 497.05935480354 438.30544091545 500.32335480354 C 440.12944091545 503.58735480354 442.64144091545 506.13135480354 445.84144091545 507.95535480354 C 449.04144091545 509.77935480354 452.62544091545 510.69135480354 456.59344091545 510.69135480354 C 460.56144091545 510.69135480354 464.14544091545 509.77935480354 467.34544091545 507.95535480354 Z M 552.68944091545 522.78735480354 L 539.72944091545 504.06735480354 L 538.96144091545 504.06735480354 L 525.42544091545 504.06735480354 L 525.42544091545 522.78735480354 L 509.87344091545 522.78735480354 L 509.87344091545 455.58735480354 L 538.96144091545 455.58735480354 C 544.91344091545 455.58735480354 550.08144091545 456.57935480354 554.46544091545 458.56335480354 C 558.84944091545 460.54735480354 562.22544091545 463.36335480354 564.59344091545 467.01135480354 C 566.96144091545 470.65935480354 568.14544091545 474.97935480354 568.14544091545 479.97135480354 C 568.14544091545 484.96335480354 566.94544091545 489.26735480354 564.54544091545 492.88335480354 C 562.14544091545 496.49935480354 558.73744091545 499.26735480354 554.32144091545 501.18735480354 L 569.39344091545 522.78735480354 L 552.68944091545 522.78735480354 Z M 548.75344091545 471.28335480354 C 546.32144091545 469.26735480354 542.76944091545 468.25935480354 538.09744091545 468.25935480354 L 525.42544091545 468.25935480354 L 525.42544091545 491.68335480354 L 538.09744091545 491.68335480354 C 542.76944091545 491.68335480354 546.32144091545 490.65935480354 548.75344091545 488.61135480354 C 551.18544091545 486.56335480354 552.40144091545 483.68335480354 552.40144091545 479.97135480354 C 552.40144091545 476.19535480354 551.18544091545 473.29935480354 548.75344091545 471.28335480354 Z M 637.26544091545 510.30735480354 L 637.26544091545 522.78735480354 L 585.23344091545 522.78735480354 L 585.23344091545 455.58735480354 L 636.01744091545 455.58735480354 L 636.01744091545 468.06735480354 L 600.68944091545 468.06735480354 L 600.68944091545 482.65935480354 L 631.88944091545 482.65935480354 L 631.88944091545 494.75535480354 L 600.68944091545 494.75535480354 L 600.68944091545 510.30735480354 L 637.26544091545 510.30735480354 Z"/></svg>